<?xml version="1.0" standalone="no"?>
<!DOCTYPE svg PUBLIC "-//W3C//DTD SVG 20010904//EN"
 "http://www.w3.org/TR/2001/REC-SVG-20010904/DTD/svg10.dtd">
<svg version="1.0" xmlns="http://www.w3.org/2000/svg"
 width="1080.000000pt" height="1080.000000pt" viewBox="0 0 1080.000000 1080.000000"
 preserveAspectRatio="xMidYMid meet">

<g transform="translate(0.000000,1080.000000) scale(0.100000,-0.100000)"
fill="#000000" stroke="none">
<path d="M3455 10789 c-696 -47 -1383 -302 -1951 -724 -758 -563 -1289 -1420
-1444 -2330 -56 -329 -53 -208 -57 -2220 -3 -1261 -1 -1916 6 -2035 32 -506
152 -967 371 -1415 358 -732 974 -1348 1705 -1705 348 -170 681 -274 1072
-335 l162 -25 2093 3 2093 3 143 27 c393 73 702 176 1032 341 369 185 668 402
965 700 310 311 513 593 705 981 234 475 351 925 381 1470 15 284 7 3783 -10
3915 -64 518 -180 914 -387 1320 -596 1172 -1760 1942 -3069 2030 -180 12
-3630 11 -3810 -1z m1677 -2492 l519 -897 -518 -900 -518 -900 -1039 2 -1040
3 -518 894 -518 894 517 899 518 898 980 3 c539 1 1006 2 1039 2 l58 0 520
-898z m3580 -2016 c285 -492 518 -897 518 -901 0 -4 -231 -409 -514 -901
l-515 -894 -1040 -3 -1040 -2 -15 27 c-8 16 -240 417 -515 892 -276 475 -501
872 -499 881 2 10 233 416 513 903 l510 887 330 2 c182 2 649 3 1040 3 l709 0
518 -894z m-4090 -1118 c8 -10 35 -54 60 -98 26 -44 255 -441 511 -882 l465
-802 -119 -208 c-66 -114 -298 -518 -517 -898 l-397 -690 -1040 -2 -1040 -3
-515 891 c-283 490 -514 898 -514 907 1 10 231 415 511 902 l510 885 779 5
c428 3 894 6 1035 8 233 2 257 0 271 -15z"/>
</g>
</svg>
