<?xml version="1.0" standalone="no"?>
<!DOCTYPE svg PUBLIC "-//W3C//DTD SVG 20010904//EN"
 "http://www.w3.org/TR/2001/REC-SVG-20010904/DTD/svg10.dtd">
<svg version="1.0" xmlns="http://www.w3.org/2000/svg"
 width="1080.000000pt" height="1080.000000pt" viewBox="0 0 1080.000000 1080.000000"
 preserveAspectRatio="xMidYMid meet">

<g transform="translate(0.000000,1080.000000) scale(0.100000,-0.100000)"
fill="#000000" stroke="none">
<path fill="#FFFFFF" d="M3515 9192 l-980 -2 -490 -852 c-269 -468 -502 -872 -517 -898 l-27
-47 519 -894 518 -894 1036 -3 1036 -2 24 37 c13 21 247 426 520 901 l496 862
-521 900 -521 900 -56 -2 c-32 -2 -498 -4 -1037 -6z"/>
<path fill="#FFFFFF" d="M6930 7172 l-815 -3 -510 -887 c-280 -488 -510 -896 -510 -907 0 -11
232 -419 515 -907 l515 -888 1036 0 1036 0 512 889 c281 490 513 896 516 903
3 7 -228 416 -513 908 l-519 895 -224 0 c-123 0 -591 -1 -1039 -3z"/>
<path fill="#FFFFFF" d="M2494 5088 c-501 -869 -984 -1713 -982 -1719 2 -4 235 -408 518 -898
l515 -890 1039 2 1040 2 513 890 c282 490 512 896 513 904 0 8 -176 318 -392
690 -216 372 -447 771 -514 886 l-122 210 -1040 3 -1040 2 -48 -82z"/>
</g>
</svg>
