<svg xmlns="http://www.w3.org/2000/svg" width="1000" height="240" viewBox="0 0 1000 240" version="1.1"><path d="M 19.633 60.819 C 14.335 70.070, 10 78.678, 10 79.949 C 10 81.220, 14.388 89.846, 19.750 99.119 L 29.500 115.979 51.117 115.990 L 72.735 116 82.617 98.799 C 88.053 89.339, 92.641 81.036, 92.814 80.348 C 92.986 79.661, 88.558 71.202, 82.972 61.549 L 72.817 44 51.041 44 L 29.265 44 19.633 60.819 M 904.687 55.646 C 902.690 57.643, 904.232 59, 908.500 59 L 913 59 913 115 L 913 171 909 171 C 905.667 171, 905 171.333, 905 173 C 905 174.943, 905.667 175, 928.573 175 C 950.484 175, 952.123 174.877, 951.815 173.250 C 951.597 172.097, 950.377 171.393, 948.242 171.187 L 945 170.873 945 147.118 C 945 120.019, 945.875 114.925, 951.497 109.303 C 955.519 105.281, 958.672 105.008, 960.025 108.565 C 960.579 110.024, 961 124.012, 961 140.999 L 961 170.867 958.259 171.184 C 956.605 171.374, 955.385 172.195, 955.185 173.250 C 954.877 174.875, 956.469 175, 977.427 175 C 999.333 175, 1000 174.941, 1000 173 C 1000 171.381, 999.333 171, 996.500 171 L 993 171 992.994 144.250 C 992.989 115.887, 992.510 111.961, 988.304 105.783 C 984.315 99.923, 977.380 96.995, 967.554 97.022 C 958.315 97.047, 953.248 98.887, 948.500 103.941 L 945.500 107.135 945 81.317 L 944.500 55.500 924.937 55.229 C 914.178 55.081, 905.065 55.268, 904.687 55.646 M 404.316 60.880 C 399.121 63.318, 396.624 67.738, 396.624 74.500 C 396.624 84.801, 402.142 89.990, 413.102 89.996 C 418.305 89.999, 420.424 89.519, 423.102 87.730 C 431.833 81.897, 432.248 67.853, 423.870 61.716 C 419.895 58.803, 409.673 58.366, 404.316 60.880 M 238.206 63.557 C 219.215 68.668, 205.738 83.336, 201.504 103.500 C 199.542 112.847, 199.591 130.271, 201.605 139.303 C 206.031 159.145, 218.348 172.042, 237.093 176.460 C 246.511 178.680, 264.536 178.457, 274.813 175.993 C 284.461 173.680, 287.286 173.537, 289.989 175.225 C 291.258 176.017, 292.278 176.106, 292.879 175.475 C 293.390 174.939, 293.963 166.625, 294.154 157 C 294.497 139.668, 294.479 139.497, 292.325 139.190 C 290.482 138.928, 289.373 140.391, 285.074 148.761 C 276.495 165.462, 268.226 173.015, 258.554 172.984 C 240.857 172.926, 232.860 152.468, 234.325 111 C 235.147 87.696, 237.906 77.802, 245.420 71.205 C 251.830 65.576, 262.070 65.517, 269.300 71.067 C 274.930 75.389, 278.813 80.544, 284.514 91.259 C 288.065 97.935, 289.653 100, 291.234 100 C 293.239 100, 293.283 99.664, 292.652 89.344 C 292.293 83.484, 292 75.384, 292 71.344 C 292 64.741, 291.804 64, 290.059 64 C 288.991 64, 287.840 64.450, 287.500 65 C 286.581 66.486, 283.207 66.227, 274.500 64 C 265.036 61.580, 246.397 61.352, 238.206 63.557 M 536.185 65.750 C 536.414 66.957, 537.633 67.594, 540.111 67.802 L 543.706 68.103 563.496 122.552 L 583.286 177 591.101 177 L 598.915 177 600.903 170.250 C 601.996 166.537, 606.345 151.350, 610.567 136.500 C 614.789 121.650, 618.386 109.341, 618.560 109.146 C 618.733 108.951, 623.898 124.156, 630.037 142.935 L 641.199 177.078 649.232 176.789 L 657.265 176.500 670.964 124.500 C 678.498 95.900, 684.972 71.263, 685.350 69.750 C 685.986 67.210, 686.419 67, 691.019 67 C 694.780 67, 696 66.633, 696 65.500 C 696 64.227, 693.500 64, 679.500 64 C 665.703 64, 663 64.239, 663 65.460 C 663 66.589, 664.762 66.985, 670.800 67.210 L 678.600 67.500 670.469 100.713 C 665.998 118.979, 661.925 134.832, 661.420 135.939 C 660.701 137.514, 658.078 130.214, 649.399 102.477 L 638.298 67 643.149 67 C 646.794 67, 648 66.627, 648 65.500 C 648 64.206, 644.500 64, 622.500 64 C 600.952 64, 597 64.224, 597 65.443 C 597 66.425, 598.356 66.983, 601.250 67.193 L 605.500 67.500 610.342 82.361 L 615.183 97.222 609.351 118.111 C 606.143 129.600, 603.289 138.994, 603.009 138.987 C 602.729 138.980, 597.028 122.780, 590.339 102.987 L 578.179 67 583.589 67 C 587.732 67, 589 66.649, 589 65.500 C 589 64.204, 585.381 64, 562.427 64 C 537.659 64, 535.876 64.119, 536.185 65.750 M 793 74.472 C 786.125 76.219, 779.263 77.961, 777.750 78.343 L 775 79.038 775 89.019 L 775 99 771.750 99.015 C 769.962 99.024, 767.880 99.423, 767.122 99.904 C 764.842 101.347, 766.869 103, 770.919 103 L 774.719 103 775.208 131.762 C 775.651 157.877, 775.883 160.948, 777.729 165.121 C 781.723 174.149, 789.158 177.390, 804.637 176.850 C 813.723 176.533, 815.122 176.217, 819.528 173.491 C 825.108 170.038, 828.622 164.214, 829.630 156.750 C 830.225 152.347, 830.113 152, 828.105 152 C 826.913 152, 825.778 152.563, 825.583 153.250 C 825.388 153.938, 824.721 156.371, 824.102 158.658 C 823.482 160.944, 821.649 164.235, 820.028 165.970 C 817.564 168.608, 816.462 169.074, 813.313 168.813 C 807.174 168.303, 807.031 167.497, 807.015 133.250 L 807 103 817.573 103 C 827.104 103, 828.114 102.827, 827.812 101.250 C 827.523 99.742, 826.060 99.461, 817.238 99.215 L 807 98.930 807 85.524 C 807 78.151, 806.663 71.933, 806.250 71.706 C 805.837 71.480, 799.875 72.724, 793 74.472 M 100.637 85.250 C 95.688 93.152, 81 119.308, 81 120.219 C 81 120.826, 85.612 129.351, 91.250 139.164 L 101.500 157.005 122.943 156.752 L 144.386 156.500 154.693 138.574 C 160.362 128.715, 165 120.441, 165 120.187 C 165 119.212, 144.524 84.462, 143.539 83.765 C 142.968 83.361, 133.398 83.024, 122.273 83.015 C 102.373 83, 102.023 83.036, 100.637 85.250 M 859.105 98.583 C 847.194 101.785, 839.044 108.411, 834.135 118.880 C 831.695 124.083, 831.500 125.502, 831.500 138.021 C 831.500 151.286, 831.562 151.669, 834.787 158.218 C 841.705 172.272, 852.308 177.529, 872.281 176.810 C 882.015 176.460, 884.180 176.054, 888.638 173.743 C 895.131 170.378, 900.148 164.551, 902.492 157.655 C 905.901 147.625, 901.472 145.593, 897.507 155.368 C 893.564 165.092, 887.169 170, 878.444 170 C 869.314 170, 865.798 165.740, 863.889 152.360 C 862.474 142.452, 863.396 118.314, 865.451 111.441 C 867.859 103.391, 873.784 99.318, 878.549 102.440 C 880.537 103.743, 881 104.879, 881 108.457 C 881 112.511, 880.781 112.893, 878.282 113.184 C 872.130 113.900, 873.270 126.273, 879.898 130.720 C 884.946 134.108, 894.685 133.978, 898.857 130.467 C 902.639 127.284, 904.366 122.165, 903.766 115.914 C 902.968 107.610, 897.109 101.342, 887.422 98.426 C 881.363 96.603, 866.154 96.687, 859.105 98.583 M 328.909 99.896 C 311.712 105.399, 303.139 119.691, 304.254 140.999 C 304.918 153.686, 307.628 160.758, 314.435 167.565 C 321.520 174.651, 328.338 177.185, 341.925 177.782 C 357.802 178.479, 367.360 175.722, 375.335 168.144 C 380.222 163.500, 382.787 158.493, 384.557 150.144 C 389.765 125.574, 381.358 105.588, 363.494 100.071 C 354.647 97.338, 337.180 97.250, 328.909 99.896 M 489.491 99.865 C 487.287 100.867, 484.024 103.347, 482.241 105.378 L 479 109.070 479 104.535 L 479 100 459 100 C 439.667 100, 439 100.067, 439 102 C 439 103.704, 439.667 104, 443.500 104 L 448 104 448 138 L 448 172 443.427 172 C 439.609 172, 438.909 172.289, 439.190 173.750 C 439.500 175.356, 441.416 175.500, 462.500 175.500 C 483.584 175.500, 485.500 175.356, 485.810 173.750 C 486.081 172.342, 485.435 172, 482.500 172 L 478.853 172 479.176 145.750 L 479.500 119.500 482.249 114.286 C 485.274 108.547, 487.727 106.716, 491.760 107.188 C 493.610 107.405, 494.631 108.262, 495.111 110 C 495.490 111.375, 495.845 125.887, 495.900 142.250 L 496 172 492.927 172 C 490.538 172, 489.928 172.390, 490.190 173.750 C 490.461 175.157, 491.553 175.492, 495.764 175.462 C 531.688 175.198, 536 174.987, 536 173.500 C 536 172.392, 534.840 172, 531.556 172 L 527.111 172 526.806 142.750 C 526.516 115.027, 526.388 113.291, 524.347 109.500 C 519.728 100.917, 513.973 97.990, 501.782 98.022 C 495.944 98.037, 492.317 98.581, 489.491 99.865 M 704.939 99.365 C 694.149 102.275, 689 107.874, 689 116.698 C 689 119.669, 689.655 123.366, 690.456 124.915 C 692.612 129.083, 698.174 131.365, 704.572 130.705 C 713.361 129.798, 718.016 125.145, 717.985 117.300 C 717.967 112.790, 717.194 111.361, 714.500 110.857 C 711.824 110.356, 711.259 105.476, 713.580 102.912 C 714.532 101.860, 716.580 101, 718.132 101 C 722.964 101, 724.177 104.295, 725.298 120.454 C 725.844 128.343, 726.015 135.518, 725.677 136.398 C 725.175 137.706, 723.361 138.003, 715.781 138.016 C 694.587 138.051, 685 143.990, 685 157.083 C 685 170.828, 691.995 176.936, 707.782 176.978 C 717.140 177.003, 721.624 175.565, 724.807 171.519 L 726.949 168.795 730.016 171.862 C 733.913 175.759, 738.406 176.987, 748.790 176.994 C 759.481 177.002, 763.870 174.966, 766.969 168.565 C 769.689 162.944, 770.381 151.500, 768 151.500 C 767.148 151.500, 766.369 152.579, 766.196 154 C 765.572 159.140, 762.961 166.801, 761.663 167.299 C 757.869 168.755, 757.518 166.840, 756.902 141.289 C 756.527 125.745, 755.834 115.017, 755.042 112.523 C 753.221 106.781, 747.532 101.532, 741.041 99.605 C 734.467 97.653, 711.846 97.502, 704.939 99.365 M 388 102 C 388 103.704, 388.667 104, 392.500 104 L 397 104 397 138 L 397 172 393 172 C 389.667 172, 389 172.333, 389 174 C 389 175.944, 389.667 176, 413 176 C 436.333 176, 437 175.944, 437 174 C 437 172.296, 436.333 172, 432.500 172 L 428 172 428 136 L 428 100 408 100 C 388.667 100, 388 100.067, 388 102 M 341.299 103.503 C 337.092 106.450, 336.495 110.814, 336.577 138 C 336.639 158.170, 336.971 164.336, 338.165 167.500 C 341.060 175.163, 348.494 175.576, 351.786 168.256 C 353.230 165.044, 353.477 160.737, 353.487 138.500 C 353.501 110.812, 352.904 106.447, 348.701 103.503 C 347.521 102.676, 345.855 102, 345 102 C 344.145 102, 342.479 102.676, 341.299 103.503 M 45.500 123.769 L 29.500 124.091 19.750 141.137 C 14.387 150.512, 10 159.157, 10 160.349 C 10 161.541, 14.436 170.163, 19.858 179.508 L 29.715 196.500 51.108 196.752 L 72.500 197.005 82.750 179.164 C 88.387 169.351, 93 160.857, 93 160.288 C 93 158.807, 73.032 124.647, 71.651 123.765 C 71.018 123.361, 68.475 123.124, 66 123.239 C 63.525 123.353, 54.300 123.592, 45.500 123.769 M 720.426 143.310 C 717.182 146.101, 715.851 152.624, 716.686 161.647 C 717.398 169.339, 718.069 170.569, 720.768 169.124 C 723.802 167.501, 725.162 162.613, 725.740 151.250 C 726.323 139.813, 725.654 138.813, 720.426 143.310" stroke="none" fill="#fffcfc" fill-rule="evenodd"/><path d="" stroke="none" fill="#fcfcfc" fill-rule="evenodd"/></svg>