<?xml version="1.0" standalone="no"?>
<!DOCTYPE svg PUBLIC "-//W3C//DTD SVG 20010904//EN"
 "http://www.w3.org/TR/2001/REC-SVG-20010904/DTD/svg10.dtd">
<svg version="1.0" xmlns="http://www.w3.org/2000/svg"
 width="1000.000000pt" height="240.000000pt" viewBox="0 0 1000.000000 240.000000"
 preserveAspectRatio="xMidYMid meet">

<g transform="translate(0.000000,240.000000) scale(0.100000,-0.100000)"
fill="#000000" stroke="none">
<path d="M200 1780 l-102 -180 88 -152 c48 -84 96 -165 106 -180 l19 -28 203
0 203 0 99 172 c55 95 100 178 102 185 2 6 -42 91 -98 188 l-102 175 -208 0
-208 0 -102 -180z"/>
<path d="M9060 1825 c0 -11 12 -15 45 -15 l45 0 0 -565 0 -565 -45 0 c-34 0
-45 -4 -45 -15 0 -13 29 -15 222 -13 166 2 222 6 226 16 2 8 -8 12 -33 12
l-36 0 3 268 c3 264 3 268 28 317 33 64 87 96 124 72 33 -22 36 -53 36 -374
l0 -283 -36 0 c-24 0 -34 -4 -32 -12 4 -10 59 -14 221 -16 189 -2 217 0 217
13 0 11 -11 15 -40 15 l-40 0 0 263 c-1 278 -7 330 -46 389 -39 61 -93 83
-199 83 -112 0 -161 -22 -206 -92 l-29 -47 0 282 0 282 -190 0 c-162 0 -190
-2 -190 -15z"/>
<path d="M4051 1782 c-53 -27 -75 -64 -75 -126 0 -93 56 -146 154 -146 98 0
160 56 160 145 0 89 -59 145 -155 145 -28 0 -65 -8 -84 -18z"/>
<path d="M2460 1770 c-212 -33 -346 -145 -417 -347 -25 -72 -28 -90 -28 -233
0 -133 3 -165 22 -226 27 -84 88 -181 143 -224 135 -107 360 -137 604 -79 96
22 99 22 112 4 8 -10 17 -16 20 -12 12 12 18 347 6 347 -6 0 -31 -39 -56 -87
-89 -171 -180 -253 -280 -253 -93 1 -180 75 -215 184 -37 111 -43 186 -38 414
5 238 18 313 71 392 59 90 170 121 261 73 69 -36 164 -157 210 -267 8 -20 22
-36 30 -36 14 0 15 21 9 163 -4 89 -8 164 -11 166 -2 3 -9 -1 -15 -7 -17 -17
-53 -15 -140 7 -92 24 -214 33 -288 21z"/>
<path d="M5370 1745 c0 -11 11 -15 38 -15 l37 0 199 -550 199 -550 69 0 c37 0
68 1 68 3 0 9 200 701 204 705 3 3 8 -1 10 -9 3 -8 55 -168 117 -356 l111
-343 68 0 69 0 15 52 c8 29 67 253 131 498 64 245 123 469 131 498 l15 52 50
0 c37 0 49 4 49 15 0 13 -24 15 -155 15 -131 0 -155 -2 -155 -15 0 -12 16 -15
81 -15 61 0 80 -3 77 -12 -3 -7 -45 -174 -94 -370 -49 -197 -91 -358 -94 -358
-4 0 -58 165 -122 368 l-115 367 43 3 c30 2 44 8 44 18 0 12 -37 14 -240 14
-207 0 -240 -2 -240 -15 0 -11 11 -15 43 -15 l44 0 47 -151 48 -152 -63 -223
c-34 -123 -65 -224 -68 -224 -4 0 -63 169 -133 375 l-127 375 54 0 c42 0 55 3
55 15 0 13 -35 15 -255 15 -220 0 -255 -2 -255 -15z"/>
<path d="M7893 1637 l-123 -31 0 -103 0 -103 -45 0 c-33 0 -45 -4 -45 -15 0
-11 12 -15 45 -15 l45 0 0 -284 c0 -290 4 -323 42 -378 64 -92 305 -103 402
-17 47 41 98 179 67 179 -5 0 -17 -24 -25 -54 -25 -84 -87 -134 -147 -119 -45
12 -49 43 -49 368 l0 305 100 0 c82 0 100 3 100 15 0 12 -18 15 -100 15 l-100
0 0 135 c0 159 17 149 -167 102z"/>
<path d="M921 1382 c-55 -98 -101 -182 -101 -186 0 -4 45 -86 101 -182 l101
-174 207 0 208 0 102 176 c55 97 101 179 101 182 0 4 -46 86 -103 182 l-102
175 -206 3 -207 2 -101 -178z"/>
<path d="M3361 1409 c-184 -31 -295 -156 -308 -351 -18 -257 110 -409 359
-425 145 -10 265 25 338 99 124 124 132 438 15 576 -76 88 -238 128 -404 101z
m129 -29 c10 -5 27 -31 37 -57 16 -42 18 -80 18 -313 0 -227 -2 -270 -17 -302
-18 -39 -44 -52 -93 -46 -71 8 -88 92 -83 398 4 235 13 285 55 318 20 15 57
16 83 2z"/>
<path d="M4930 1409 c-50 -16 -89 -46 -121 -97 l-29 -46 0 67 0 67 -190 0
c-162 0 -190 -2 -190 -15 0 -11 12 -15 45 -15 l45 0 0 -345 0 -345 -45 0 c-33
0 -45 -4 -45 -15 0 -13 32 -15 225 -15 193 0 225 2 225 15 0 11 -11 15 -36 15
l-35 0 3 263 c3 251 4 264 26 309 28 57 64 88 102 88 54 0 55 -7 58 -347 l3
-313 -30 0 c-21 0 -31 -5 -31 -15 0 -13 31 -15 220 -15 189 0 220 2 220 15 0
11 -12 15 -44 15 l-45 0 -3 288 c-3 286 -3 288 -29 337 -36 72 -94 105 -190
110 -41 3 -90 0 -109 -6z"/>
<path d="M7090 1409 c-67 -13 -135 -48 -161 -83 -17 -22 -24 -48 -27 -93 -4
-61 -3 -64 32 -99 36 -36 38 -36 101 -32 55 3 69 8 95 33 49 47 54 150 7 157
-17 2 -23 11 -25 36 -4 41 10 60 53 68 76 14 90 -21 101 -233 l7 -143 -74 0
c-161 0 -275 -36 -316 -99 -17 -26 -23 -48 -23 -93 0 -113 50 -171 162 -190
112 -19 202 9 229 71 8 17 16 31 19 31 3 -1 14 -15 25 -33 32 -51 85 -72 185
-72 97 0 141 18 172 71 23 39 43 137 33 161 -5 13 -12 -2 -21 -51 -18 -95 -51
-128 -86 -88 -13 14 -17 58 -20 262 -4 239 -4 246 -30 301 -31 68 -81 102
-172 118 -69 13 -201 13 -266 0z m178 -528 c-6 -112 -21 -161 -57 -180 -13 -7
-24 -6 -36 3 -26 19 -27 196 -2 243 17 31 69 57 91 45 5 -3 6 -53 4 -111z"/>
<path d="M8610 1407 c-79 -19 -122 -40 -169 -83 -81 -73 -121 -174 -121 -309
1 -215 103 -344 300 -376 85 -14 197 -1 258 30 56 29 110 89 132 149 24 63 25
72 5 72 -8 0 -15 -7 -15 -15 0 -22 -38 -95 -64 -123 -35 -39 -93 -64 -153 -64
-131 -1 -171 100 -160 402 7 176 18 228 57 270 55 59 150 31 150 -42 0 -42 -9
-55 -40 -59 -23 -4 -25 -8 -25 -61 0 -66 24 -99 83 -119 104 -34 195 49 178
165 -10 65 -42 107 -109 140 -50 25 -72 30 -155 32 -57 2 -120 -2 -152 -9z"/>
<path d="M3890 1385 c0 -11 12 -15 45 -15 l45 0 0 -148 c0 -82 3 -237 7 -345
l6 -197 -46 0 c-35 0 -47 -4 -47 -15 0 -13 32 -15 230 -15 198 0 230 2 230 15
0 11 -12 15 -45 15 l-45 0 0 360 0 360 -190 0 c-162 0 -190 -2 -190 -15z"/>
<path d="M378 1153 l-77 -4 -101 -176 -101 -176 103 -179 103 -178 209 2 210
3 101 176 102 175 -98 170 c-53 93 -102 175 -109 182 -11 12 -137 14 -342 5z"/>
</g>
</svg>
