<?xml version="1.0" standalone="no"?>
<!DOCTYPE svg PUBLIC "-//W3C//DTD SVG 20010904//EN"
 "http://www.w3.org/TR/2001/REC-SVG-20010904/DTD/svg10.dtd">
<svg version="1.0" xmlns="http://www.w3.org/2000/svg"
 width="1000.000000pt" height="240.000000pt" viewBox="0 0 1000.000000 240.000000"
 preserveAspectRatio="xMidYMid meet">

<g transform="translate(0.000000,240.000000) scale(0.100000,-0.100000)"
fill="#000000" stroke="none">
<path d="M201 1783 c-62 -107 -99 -182 -96 -192 3 -9 50 -91 103 -183 l97
-168 207 0 206 0 101 175 c56 97 101 180 101 187 0 6 -45 89 -101 184 l-101
174 -207 0 -208 0 -102 -177z"/>
<path d="M9060 1825 c0 -11 12 -15 45 -15 l45 0 -2 -562 -3 -563 -42 -3 c-30
-2 -43 -8 -43 -18 0 -12 33 -14 222 -12 166 2 222 6 226 16 2 8 -8 12 -33 12
l-36 0 3 268 c3 264 3 268 28 317 33 65 87 96 125 71 33 -21 37 -67 33 -386
l-3 -265 -33 -3 c-20 -2 -32 -8 -29 -15 3 -9 65 -13 220 -15 189 -2 217 0 217
13 0 11 -11 15 -40 15 l-40 0 0 263 c-1 278 -7 330 -46 389 -39 61 -93 83
-199 83 -112 0 -161 -22 -206 -92 l-29 -47 0 282 0 282 -190 0 c-162 0 -190
-2 -190 -15z"/>
<path d="M4054 1786 c-90 -40 -109 -169 -34 -241 27 -25 40 -30 98 -33 52 -2
75 1 101 16 93 51 94 208 1 254 -41 21 -122 23 -166 4z"/>
<path d="M2433 1766 c-193 -37 -323 -151 -390 -343 -25 -72 -28 -90 -28 -233
0 -182 18 -257 85 -358 99 -147 259 -212 495 -199 61 4 144 15 185 27 91 24
94 24 115 4 9 -9 19 -14 22 -10 12 11 16 346 5 346 -6 0 -31 -39 -56 -87 -64
-124 -123 -195 -187 -227 -162 -80 -300 35 -339 284 -13 83 -13 406 0 484 32
197 106 289 233 289 65 0 120 -27 173 -85 43 -46 105 -143 129 -202 9 -20 22
-36 31 -36 14 0 15 18 9 163 -4 89 -9 164 -11 166 -3 3 -10 -1 -16 -7 -17 -17
-53 -15 -143 8 -105 27 -223 33 -312 16z"/>
<path d="M5370 1746 c0 -10 13 -16 38 -18 l37 -3 199 -547 200 -548 68 0 c37
0 68 1 68 3 0 9 200 701 204 705 3 3 8 -1 10 -9 3 -8 55 -168 117 -356 l111
-343 68 0 69 0 15 52 c8 29 67 253 131 498 64 245 123 469 131 498 l15 52 50
0 c37 0 49 4 49 15 0 13 -24 15 -155 15 -131 0 -155 -2 -155 -15 0 -12 16 -15
81 -15 61 0 80 -3 77 -12 -3 -7 -45 -174 -94 -370 -49 -197 -91 -358 -94 -358
-4 0 -58 165 -122 368 l-115 367 43 3 c30 2 44 8 44 18 0 12 -37 14 -240 14
-207 0 -240 -2 -240 -15 0 -11 11 -15 43 -15 l44 0 47 -151 48 -152 -63 -223
c-34 -123 -65 -224 -68 -224 -4 0 -63 169 -133 375 l-127 375 54 0 c42 0 55 3
55 15 0 13 -35 15 -255 15 -215 0 -255 -2 -255 -14z"/>
<path d="M7893 1637 l-123 -31 0 -103 0 -103 -45 0 c-33 0 -45 -4 -45 -15 0
-11 12 -15 45 -15 l45 0 0 -284 c0 -290 4 -323 42 -378 64 -92 305 -103 402
-17 47 41 98 179 67 179 -5 0 -17 -24 -25 -54 -25 -84 -87 -134 -147 -119 -45
12 -49 43 -49 368 l0 305 100 0 c82 0 100 3 100 15 0 12 -18 15 -100 15 l-100
0 0 135 c0 159 17 149 -167 102z"/>
<path d="M921 1384 c-55 -97 -101 -181 -101 -187 0 -7 45 -88 99 -182 l99
-170 210 -3 210 -2 101 175 c56 97 101 178 101 182 0 8 -166 297 -192 336
l-19 27 -203 0 -203 0 -102 -176z"/>
<path d="M3361 1409 c-184 -31 -295 -156 -308 -351 -18 -257 111 -411 359
-425 297 -18 452 136 435 432 -12 208 -106 318 -294 345 -79 11 -118 11 -192
-1z m129 -29 c10 -5 27 -31 37 -57 16 -42 18 -80 18 -313 0 -227 -2 -270 -17
-302 -18 -39 -44 -52 -93 -46 -70 8 -89 100 -83 407 4 226 13 275 56 307 20
16 56 18 82 4z"/>
<path d="M4930 1409 c-50 -16 -89 -46 -121 -97 l-29 -46 0 67 0 67 -190 0
c-162 0 -190 -2 -190 -15 0 -11 12 -15 45 -15 l45 0 0 -345 0 -345 -45 0 c-33
0 -45 -4 -45 -15 0 -13 32 -15 225 -15 193 0 225 2 225 15 0 11 -11 15 -36 15
l-35 0 3 263 c3 251 4 264 26 309 28 57 64 88 102 88 54 0 55 -7 58 -347 l3
-313 -30 0 c-21 0 -31 -5 -31 -15 0 -13 31 -15 220 -15 189 0 220 2 220 15 0
11 -12 15 -44 15 l-45 0 -3 288 c-3 286 -3 288 -29 337 -36 72 -94 105 -190
110 -41 3 -90 0 -109 -6z"/>
<path d="M7080 1407 c-128 -30 -172 -73 -178 -174 -4 -61 -3 -64 32 -99 36
-36 38 -36 101 -32 55 3 69 8 95 33 49 47 54 150 7 157 -17 2 -23 11 -25 36
-4 41 10 60 53 68 75 14 90 -20 101 -233 l7 -143 -74 0 c-161 0 -275 -36 -316
-99 -17 -26 -23 -48 -23 -93 0 -113 50 -171 162 -190 112 -19 202 9 229 71 15
32 29 41 29 17 0 -28 67 -74 127 -86 111 -23 208 3 245 66 23 39 43 137 33
161 -5 13 -12 -2 -21 -51 -18 -96 -51 -128 -87 -88 -15 16 -17 47 -17 218 0
221 -9 307 -38 362 -21 41 -67 76 -121 93 -57 17 -258 21 -321 6z m188 -526
c-6 -112 -21 -161 -57 -180 -13 -7 -23 -6 -36 2 -25 19 -27 198 -2 244 17 31
69 57 91 45 5 -3 6 -53 4 -111z"/>
<path d="M8610 1407 c-83 -20 -125 -41 -178 -92 -70 -65 -102 -141 -109 -258
-15 -243 85 -383 298 -418 84 -14 196 -1 257 30 56 29 110 89 132 149 24 63
25 72 5 72 -8 0 -15 -7 -15 -15 0 -22 -38 -95 -64 -123 -35 -39 -93 -64 -153
-64 -131 -1 -171 100 -160 402 7 176 18 228 57 270 55 59 150 31 150 -42 0
-42 -9 -55 -40 -59 -23 -4 -25 -8 -25 -61 0 -66 24 -99 83 -119 104 -34 195
49 178 165 -10 65 -42 107 -109 140 -50 25 -72 30 -155 32 -57 2 -120 -2 -152
-9z"/>
<path d="M3890 1385 c0 -11 12 -15 45 -15 l45 0 0 -148 c0 -82 3 -237 7 -345
l6 -197 -46 0 c-35 0 -47 -4 -47 -15 0 -13 33 -15 236 -15 184 0 235 3 232 13
-3 6 -23 13 -45 15 l-40 3 -6 82 c-4 45 -7 207 -7 360 l0 277 -190 0 c-162 0
-190 -2 -190 -15z"/>
<path d="M303 1148 c-24 -30 -204 -350 -201 -357 2 -4 48 -85 103 -179 l99
-172 211 2 210 3 101 176 102 176 -105 182 -105 181 -203 0 c-150 0 -205 -3
-212 -12z"/>
</g>
</svg>
