<?xml version="1.0" standalone="no"?>
<!DOCTYPE svg PUBLIC "-//W3C//DTD SVG 20010904//EN"
 "http://www.w3.org/TR/2001/REC-SVG-20010904/DTD/svg10.dtd">
<svg version="1.0" xmlns="http://www.w3.org/2000/svg"
 width="1000.000000pt" height="240.000000pt" viewBox="0 0 1000.000000 240.000000"
 preserveAspectRatio="xMidYMid meet">

<g transform="translate(0.000000,240.000000) scale(0.100000,-0.100000)"
fill="#000000" stroke="none">
<path d="M210 1798 c-52 -90 -98 -170 -103 -179 -8 -13 13 -58 94 -198 l104
-181 207 0 206 0 101 176 c56 97 101 181 101 186 0 6 -45 89 -101 184 l-101
174 -208 0 -207 0 -93 -162z"/>
<path d="M9060 1825 c0 -11 12 -15 45 -15 l45 0 -2 -562 -3 -563 -42 -3 c-30
-2 -43 -8 -43 -18 0 -12 33 -14 222 -12 166 2 222 6 226 16 2 8 -8 12 -33 12
l-36 0 3 268 c3 264 3 268 28 317 17 33 38 57 62 69 33 19 37 19 60 4 35 -23
38 -51 38 -375 l0 -283 -36 0 c-24 0 -34 -4 -32 -12 4 -10 59 -14 221 -16 189
-2 217 0 217 13 0 11 -11 15 -40 15 l-40 0 0 263 c-1 278 -7 330 -46 389 -39
61 -93 83 -199 83 -112 0 -161 -22 -206 -92 l-29 -47 0 282 0 282 -190 0
c-162 0 -190 -2 -190 -15z"/>
<path d="M4051 1782 c-53 -27 -74 -62 -74 -126 0 -63 18 -97 66 -126 42 -26
130 -27 176 -2 94 50 94 204 0 254 -43 23 -123 23 -168 0z"/>
<path d="M2465 1771 c-182 -29 -312 -116 -384 -259 -55 -109 -66 -163 -66
-327 0 -128 3 -161 22 -221 26 -83 88 -181 141 -222 140 -111 358 -140 606
-81 96 22 99 22 112 4 8 -10 17 -16 20 -12 12 12 18 347 6 347 -6 0 -31 -39
-56 -87 -64 -124 -123 -195 -187 -227 -93 -46 -175 -30 -244 46 -79 88 -105
208 -105 477 0 257 21 372 83 452 86 113 228 112 333 -3 43 -46 105 -143 129
-202 8 -20 22 -36 30 -36 14 0 15 21 9 163 -4 89 -8 164 -11 166 -2 3 -9 -1
-15 -7 -17 -17 -53 -15 -140 7 -89 23 -214 33 -283 22z"/>
<path d="M5370 1745 c0 -11 11 -15 38 -15 l37 0 199 -550 199 -550 69 0 c37 0
68 1 68 3 0 9 200 701 204 705 3 3 8 -1 10 -9 9 -27 178 -545 203 -622 l25
-77 68 0 c57 0 70 3 74 18 3 9 62 233 131 497 69 264 133 504 141 533 l15 52
49 0 c38 0 50 4 50 15 0 13 -24 15 -155 15 -131 0 -155 -2 -155 -15 0 -12 16
-15 81 -15 61 0 80 -3 77 -12 -3 -7 -45 -174 -94 -370 -49 -197 -91 -358 -94
-358 -4 0 -58 165 -122 368 l-115 367 43 3 c30 2 44 8 44 18 0 12 -37 14 -240
14 -207 0 -240 -2 -240 -15 0 -11 11 -15 43 -15 l44 0 48 -153 47 -153 -63
-222 c-34 -122 -65 -222 -69 -222 -3 0 -62 169 -132 375 l-127 375 54 0 c42 0
55 3 55 15 0 13 -35 15 -255 15 -220 0 -255 -2 -255 -15z"/>
<path d="M7893 1637 l-123 -31 0 -103 0 -103 -45 0 c-33 0 -45 -4 -45 -15 0
-11 12 -15 45 -15 l45 0 0 -284 c0 -290 4 -323 42 -378 44 -64 201 -96 311
-64 93 27 143 85 162 189 11 58 -11 45 -29 -17 -25 -84 -87 -134 -147 -119
-45 12 -49 43 -49 368 l0 305 100 0 c82 0 100 3 100 15 0 12 -18 15 -100 15
l-100 0 0 135 c0 159 17 149 -167 102z"/>
<path d="M924 1388 c-55 -95 -100 -178 -102 -185 -2 -7 42 -92 98 -188 l102
-175 208 0 208 0 87 153 c48 83 94 164 103 178 15 26 13 31 -73 180 -49 85
-97 166 -107 182 l-19 27 -203 0 -203 0 -99 -172z"/>
<path d="M3361 1409 c-184 -31 -295 -156 -308 -351 -18 -257 110 -409 359
-425 145 -10 265 25 338 99 124 124 132 438 15 576 -76 88 -238 128 -404 101z
m129 -29 c10 -5 27 -31 37 -57 16 -42 18 -80 18 -313 0 -227 -2 -270 -17 -302
-18 -39 -44 -52 -93 -46 -71 8 -88 92 -83 398 4 235 13 285 55 318 20 15 57
16 83 2z"/>
<path d="M4928 1406 c-58 -21 -87 -43 -119 -94 l-29 -46 0 67 0 67 -190 0
c-162 0 -190 -2 -190 -15 0 -11 12 -15 45 -15 l45 0 0 -345 0 -345 -45 0 c-33
0 -45 -4 -45 -15 0 -13 32 -15 225 -15 193 0 225 2 225 15 0 10 -11 15 -35 15
l-35 0 0 243 c0 194 3 254 16 297 20 67 69 120 112 120 56 0 57 -4 60 -347 l3
-313 -30 0 c-21 0 -31 -5 -31 -15 0 -13 31 -15 220 -15 189 0 220 2 220 15 0
11 -12 15 -45 15 l-45 0 0 268 c0 305 -7 348 -65 407 -58 58 -182 81 -267 51z"/>
<path d="M7095 1409 c-70 -11 -139 -46 -166 -83 -17 -22 -24 -48 -27 -93 -4
-61 -3 -64 32 -99 36 -36 38 -36 101 -32 55 3 69 8 95 33 49 47 54 150 7 157
-17 2 -23 11 -25 36 -4 41 10 60 53 68 76 14 91 -21 101 -233 l7 -143 -69 0
c-102 0 -203 -17 -254 -43 -63 -31 -90 -75 -90 -149 0 -113 50 -171 162 -190
112 -19 202 9 229 71 8 17 16 31 19 31 3 -1 14 -15 25 -33 32 -51 85 -72 185
-72 97 0 141 18 172 71 23 39 43 137 33 161 -5 13 -12 -2 -21 -51 -18 -95 -51
-128 -86 -88 -13 14 -17 58 -20 262 -4 239 -4 246 -30 301 -31 68 -81 102
-172 118 -68 13 -187 13 -261 0z m173 -528 c-5 -106 -18 -152 -52 -180 -11 -9
-20 -10 -35 -2 -37 20 -40 184 -5 253 14 26 68 51 88 40 5 -3 6 -52 4 -111z"/>
<path d="M8610 1407 c-82 -20 -124 -41 -175 -88 -78 -72 -115 -171 -115 -307
1 -212 104 -341 300 -373 85 -14 197 -1 258 30 56 29 110 89 132 149 24 63 25
72 5 72 -8 0 -15 -7 -15 -15 0 -22 -38 -95 -64 -123 -35 -39 -93 -64 -152 -64
-132 -1 -171 96 -161 397 8 238 36 305 128 305 49 0 79 -28 79 -72 0 -42 -9
-55 -40 -59 -23 -4 -25 -8 -25 -61 0 -67 25 -101 86 -119 78 -24 148 14 169
91 25 92 -12 169 -103 214 -50 25 -72 30 -155 32 -57 2 -120 -2 -152 -9z"/>
<path d="M3890 1385 c0 -11 11 -15 43 -15 l44 0 6 -107 c4 -58 7 -213 7 -345
l0 -238 -45 0 c-33 0 -45 -4 -45 -15 0 -13 32 -15 230 -15 198 0 230 2 230 15
0 11 -12 15 -45 15 l-45 0 0 360 0 360 -190 0 c-162 0 -190 -2 -190 -15z"/>
<path d="M303 1148 c-24 -31 -204 -350 -201 -357 2 -4 48 -85 103 -179 l99
-172 210 2 210 3 102 176 102 176 -98 169 c-54 93 -103 175 -110 182 -8 9 -63
12 -209 12 -147 0 -201 -3 -208 -12z"/>
</g>
</svg>
